<mxfile host="app.diagrams.net" agent="Mozilla/5.0 (Macintosh; Intel Mac OS X 10_15_7) AppleWebKit/537.36 (KHTML, like Gecko) Chrome/130.0.0.0 Safari/537.36" version="24.8.4">
  <diagram name="Page-1" id="-H_mtQnk-PTXWXPvYvuk">
    <mxGraphModel dx="2056" dy="1362" grid="1" gridSize="10" guides="1" tooltips="1" connect="1" arrows="1" fold="1" page="1" pageScale="1" pageWidth="1169" pageHeight="827" math="0" shadow="0">
      <root>
        <mxCell id="0" />
        <mxCell id="1" parent="0" />
        <mxCell id="YEn8krl3zml85tbBqMSh-10" value="&lt;font color=&quot;#0000ff&quot;&gt;consul_kv&lt;/font&gt;" style="rounded=1;whiteSpace=wrap;html=1;" vertex="1" parent="1">
          <mxGeometry x="400" y="120" width="80" height="40" as="geometry" />
        </mxCell>
        <mxCell id="O0JGWU8lI0FsoURaPSgX-9" value="Вторичный&lt;div&gt;сервер&lt;/div&gt;&lt;div&gt;&lt;span style=&quot;color: rgb(0, 0, 255);&quot;&gt;shard2_r3&lt;/span&gt;&lt;/div&gt;" style="shape=cylinder3;whiteSpace=wrap;html=1;boundedLbl=1;backgroundOutline=1;size=15;fillColor=#C3ABD0;" parent="1" vertex="1">
          <mxGeometry x="505" y="650" width="120" height="80" as="geometry" />
        </mxCell>
        <mxCell id="O0JGWU8lI0FsoURaPSgX-8" value="Вторичный&lt;div&gt;сервер&lt;/div&gt;&lt;div&gt;&lt;span style=&quot;color: rgb(0, 0, 255);&quot;&gt;shard2_r2&lt;/span&gt;&lt;/div&gt;" style="shape=cylinder3;whiteSpace=wrap;html=1;boundedLbl=1;backgroundOutline=1;size=15;fillColor=#C3ABD0;" parent="1" vertex="1">
          <mxGeometry x="505" y="600" width="120" height="80" as="geometry" />
        </mxCell>
        <mxCell id="O0JGWU8lI0FsoURaPSgX-6" value="Вторичный&lt;div&gt;сервер&lt;/div&gt;&lt;div&gt;&lt;font color=&quot;#0000ff&quot;&gt;shard1_r3&lt;/font&gt;&lt;/div&gt;" style="shape=cylinder3;whiteSpace=wrap;html=1;boundedLbl=1;backgroundOutline=1;size=15;fillColor=#C3ABD0;" parent="1" vertex="1">
          <mxGeometry x="300" y="650" width="120" height="80" as="geometry" />
        </mxCell>
        <mxCell id="O0JGWU8lI0FsoURaPSgX-5" value="Вторичный&lt;div&gt;сервер&lt;/div&gt;&lt;div&gt;&lt;font color=&quot;#0000ff&quot;&gt;shard1_r2&lt;/font&gt;&lt;/div&gt;" style="shape=cylinder3;whiteSpace=wrap;html=1;boundedLbl=1;backgroundOutline=1;size=15;fillColor=#C3ABD0;" parent="1" vertex="1">
          <mxGeometry x="300" y="600" width="120" height="80" as="geometry" />
        </mxCell>
        <mxCell id="jYWn2WIOkaRR7hL1_p1A-22" value="Первичный&lt;div&gt;сервер&lt;/div&gt;&lt;div&gt;&lt;font color=&quot;#0000ff&quot;&gt;shard2_r1&lt;/font&gt;&lt;/div&gt;" style="shape=cylinder3;whiteSpace=wrap;html=1;boundedLbl=1;backgroundOutline=1;size=15;strokeColor=#FF0000;fillColor=#FF9999;" parent="1" vertex="1">
          <mxGeometry x="505" y="550" width="120" height="80" as="geometry" />
        </mxCell>
        <mxCell id="jYWn2WIOkaRR7hL1_p1A-18" value="Первичный&lt;div&gt;сервер&lt;br&gt;&lt;font color=&quot;#0000ff&quot;&gt;shard1_r1&lt;/font&gt;&lt;/div&gt;" style="shape=cylinder3;whiteSpace=wrap;html=1;boundedLbl=1;backgroundOutline=1;size=15;strokeColor=#FF0000;fillColor=#FF9999;" parent="1" vertex="1">
          <mxGeometry x="300" y="550" width="120" height="80" as="geometry" />
        </mxCell>
        <mxCell id="zA23MoTUsTF4_91t8viU-2" value="MongoDB&lt;div&gt;&lt;font color=&quot;#0000ff&quot;&gt;shard1&lt;/font&gt;&lt;/div&gt;" style="shape=cylinder3;whiteSpace=wrap;html=1;boundedLbl=1;backgroundOutline=1;size=15;" parent="1" vertex="1">
          <mxGeometry x="300" y="500" width="120" height="80" as="geometry" />
        </mxCell>
        <mxCell id="jYWn2WIOkaRR7hL1_p1A-4" value="&lt;div&gt;MongoDB&lt;/div&gt;&lt;div&gt;&lt;font color=&quot;#0000ff&quot;&gt;mongos_router&lt;/font&gt;&lt;/div&gt;" style="rounded=1;whiteSpace=wrap;html=1;" parent="1" vertex="1">
          <mxGeometry x="410" y="414" width="100" height="40" as="geometry" />
        </mxCell>
        <mxCell id="jYWn2WIOkaRR7hL1_p1A-5" value="Конфигурационный сервер &lt;font color=&quot;#0000ff&quot;&gt;configSrv&lt;/font&gt;&amp;nbsp;&lt;div&gt;MongoDB&lt;/div&gt;" style="rounded=1;whiteSpace=wrap;html=1;" parent="1" vertex="1">
          <mxGeometry x="660" y="354" width="120" height="60" as="geometry" />
        </mxCell>
        <mxCell id="jYWn2WIOkaRR7hL1_p1A-6" value="" style="endArrow=classic;html=1;rounded=0;exitX=0.75;exitY=1;exitDx=0;exitDy=0;entryX=1;entryY=0;entryDx=0;entryDy=0;strokeColor=#CC6600;" parent="1" edge="1">
          <mxGeometry width="50" height="50" relative="1" as="geometry">
            <mxPoint x="590" y="340" as="sourcePoint" />
            <mxPoint x="504.9999999999999" y="414" as="targetPoint" />
            <Array as="points">
              <mxPoint x="590" y="390" />
            </Array>
          </mxGeometry>
        </mxCell>
        <mxCell id="jYWn2WIOkaRR7hL1_p1A-10" value="" style="endArrow=classic;html=1;rounded=0;entryX=0.5;entryY=1;entryDx=0;entryDy=0;exitX=1.043;exitY=0.753;exitDx=0;exitDy=0;exitPerimeter=0;strokeColor=#7F00FF;" parent="1" target="jYWn2WIOkaRR7hL1_p1A-5" edge="1">
          <mxGeometry width="50" height="50" relative="1" as="geometry">
            <mxPoint x="587.5799999999999" y="560.24" as="sourcePoint" />
            <mxPoint x="520" y="480" as="targetPoint" />
            <Array as="points">
              <mxPoint x="720" y="560" />
            </Array>
          </mxGeometry>
        </mxCell>
        <mxCell id="jYWn2WIOkaRR7hL1_p1A-21" value="MongoDB&lt;div&gt;&lt;span style=&quot;background-color: initial;&quot;&gt;&lt;font color=&quot;#0000ff&quot;&gt;shard2&lt;/font&gt;&lt;/span&gt;&lt;/div&gt;" style="shape=cylinder3;whiteSpace=wrap;html=1;boundedLbl=1;backgroundOutline=1;size=15;" parent="1" vertex="1">
          <mxGeometry x="505" y="500" width="120" height="80" as="geometry" />
        </mxCell>
        <mxCell id="jYWn2WIOkaRR7hL1_p1A-34" value="&lt;font color=&quot;#0000ff&quot;&gt;pymongo-api&lt;/font&gt;" style="rounded=1;whiteSpace=wrap;html=1;" parent="1" vertex="1">
          <mxGeometry x="505" y="280" width="120" height="60" as="geometry" />
        </mxCell>
        <mxCell id="O0JGWU8lI0FsoURaPSgX-1" value="" style="endArrow=classic;startArrow=classic;html=1;rounded=0;exitX=0.5;exitY=0;exitDx=0;exitDy=0;exitPerimeter=0;entryX=0.75;entryY=1;entryDx=0;entryDy=0;strokeColor=#7F00FF;" parent="1" source="jYWn2WIOkaRR7hL1_p1A-21" target="jYWn2WIOkaRR7hL1_p1A-4" edge="1">
          <mxGeometry width="50" height="50" relative="1" as="geometry">
            <mxPoint x="320" y="420" as="sourcePoint" />
            <mxPoint x="370" y="370" as="targetPoint" />
          </mxGeometry>
        </mxCell>
        <mxCell id="O0JGWU8lI0FsoURaPSgX-2" value="" style="endArrow=classic;startArrow=classic;html=1;rounded=0;exitX=0.5;exitY=0;exitDx=0;exitDy=0;exitPerimeter=0;entryX=0.25;entryY=1;entryDx=0;entryDy=0;strokeColor=#7F00FF;" parent="1" source="zA23MoTUsTF4_91t8viU-2" target="jYWn2WIOkaRR7hL1_p1A-4" edge="1">
          <mxGeometry width="50" height="50" relative="1" as="geometry">
            <mxPoint x="575" y="510" as="sourcePoint" />
            <mxPoint x="495" y="464" as="targetPoint" />
          </mxGeometry>
        </mxCell>
        <mxCell id="O0JGWU8lI0FsoURaPSgX-3" value="" style="endArrow=classic;html=1;rounded=0;entryX=0.25;entryY=1;entryDx=0;entryDy=0;exitX=0.992;exitY=0.659;exitDx=0;exitDy=0;exitPerimeter=0;strokeColor=#7F00FF;" parent="1" source="jYWn2WIOkaRR7hL1_p1A-4" target="jYWn2WIOkaRR7hL1_p1A-5" edge="1">
          <mxGeometry width="50" height="50" relative="1" as="geometry">
            <mxPoint x="320" y="420" as="sourcePoint" />
            <mxPoint x="640" y="370" as="targetPoint" />
            <Array as="points">
              <mxPoint x="690" y="440" />
            </Array>
          </mxGeometry>
        </mxCell>
        <mxCell id="YEn8krl3zml85tbBqMSh-1" value="Redis&lt;br&gt;&lt;font color=&quot;#0000ff&quot;&gt;redis_1&lt;/font&gt;" style="shape=cube;whiteSpace=wrap;html=1;boundedLbl=1;backgroundOutline=1;darkOpacity=0.05;darkOpacity2=0.1;" vertex="1" parent="1">
          <mxGeometry x="100" y="480" width="120" height="80" as="geometry" />
        </mxCell>
        <mxCell id="YEn8krl3zml85tbBqMSh-2" value="" style="endArrow=classic;html=1;rounded=0;exitX=0.308;exitY=0.983;exitDx=0;exitDy=0;exitPerimeter=0;entryX=0.992;entryY=0.525;entryDx=0;entryDy=0;entryPerimeter=0;strokeColor=#CC6600;" edge="1" parent="1" source="jYWn2WIOkaRR7hL1_p1A-34" target="YEn8krl3zml85tbBqMSh-1">
          <mxGeometry width="50" height="50" relative="1" as="geometry">
            <mxPoint x="200" y="550" as="sourcePoint" />
            <mxPoint x="250" y="500" as="targetPoint" />
          </mxGeometry>
        </mxCell>
        <mxCell id="YEn8krl3zml85tbBqMSh-3" value="" style="endArrow=classic;html=1;rounded=0;exitX=0.5;exitY=1;exitDx=0;exitDy=0;exitPerimeter=0;entryX=0.831;entryY=0.997;entryDx=0;entryDy=0;entryPerimeter=0;strokeColor=#7F00FF;" edge="1" parent="1" source="O0JGWU8lI0FsoURaPSgX-6" target="jYWn2WIOkaRR7hL1_p1A-5">
          <mxGeometry width="50" height="50" relative="1" as="geometry">
            <mxPoint x="530" y="570" as="sourcePoint" />
            <mxPoint x="759" y="411" as="targetPoint" />
            <Array as="points">
              <mxPoint x="360" y="760" />
              <mxPoint x="760" y="760" />
            </Array>
          </mxGeometry>
        </mxCell>
        <mxCell id="YEn8krl3zml85tbBqMSh-4" value="&lt;font color=&quot;#0000ff&quot;&gt;pymongo-api&lt;/font&gt;" style="rounded=1;whiteSpace=wrap;html=1;" vertex="1" parent="1">
          <mxGeometry x="320" y="280" width="120" height="60" as="geometry" />
        </mxCell>
        <mxCell id="YEn8krl3zml85tbBqMSh-6" value="" style="endArrow=classic;html=1;rounded=0;exitX=0.338;exitY=1.022;exitDx=0;exitDy=0;entryX=0.054;entryY=0.017;entryDx=0;entryDy=0;exitPerimeter=0;entryPerimeter=0;strokeColor=#CC6600;" edge="1" parent="1" source="YEn8krl3zml85tbBqMSh-4" target="jYWn2WIOkaRR7hL1_p1A-4">
          <mxGeometry width="50" height="50" relative="1" as="geometry">
            <mxPoint x="605" y="350" as="sourcePoint" />
            <mxPoint x="520" y="424" as="targetPoint" />
            <Array as="points">
              <mxPoint x="360" y="380" />
            </Array>
          </mxGeometry>
        </mxCell>
        <mxCell id="YEn8krl3zml85tbBqMSh-7" value="" style="endArrow=classic;html=1;rounded=0;entryX=0;entryY=0;entryDx=119.99999999999999;entryDy=20;entryPerimeter=0;strokeColor=#CC6600;" edge="1" parent="1" target="YEn8krl3zml85tbBqMSh-1">
          <mxGeometry width="50" height="50" relative="1" as="geometry">
            <mxPoint x="340" y="340" as="sourcePoint" />
            <mxPoint x="229" y="532" as="targetPoint" />
          </mxGeometry>
        </mxCell>
        <mxCell id="YEn8krl3zml85tbBqMSh-9" value="&lt;font color=&quot;#0000ff&quot;&gt;APISIX Gateway&lt;/font&gt;" style="rounded=1;whiteSpace=wrap;html=1;" vertex="1" parent="1">
          <mxGeometry x="290" y="110" width="120" height="60" as="geometry" />
        </mxCell>
        <mxCell id="YEn8krl3zml85tbBqMSh-11" value="&lt;font color=&quot;#0000ff&quot;&gt;Consul&lt;/font&gt;" style="rounded=1;whiteSpace=wrap;html=1;" vertex="1" parent="1">
          <mxGeometry x="585" y="110" width="120" height="60" as="geometry" />
        </mxCell>
        <mxCell id="YEn8krl3zml85tbBqMSh-12" value="" style="endArrow=classic;html=1;rounded=0;exitX=1;exitY=0.5;exitDx=0;exitDy=0;entryX=0;entryY=0.5;entryDx=0;entryDy=0;" edge="1" parent="1" source="YEn8krl3zml85tbBqMSh-10" target="YEn8krl3zml85tbBqMSh-11">
          <mxGeometry width="50" height="50" relative="1" as="geometry">
            <mxPoint x="420" y="500" as="sourcePoint" />
            <mxPoint x="470" y="450" as="targetPoint" />
          </mxGeometry>
        </mxCell>
        <mxCell id="YEn8krl3zml85tbBqMSh-13" value="" style="endArrow=classic;html=1;rounded=0;entryX=0.75;entryY=1;entryDx=0;entryDy=0;strokeColor=#CC6600;" edge="1" parent="1">
          <mxGeometry width="50" height="50" relative="1" as="geometry">
            <mxPoint x="680" y="260" as="sourcePoint" />
            <mxPoint x="680" y="170" as="targetPoint" />
          </mxGeometry>
        </mxCell>
        <mxCell id="YEn8krl3zml85tbBqMSh-14" value="" style="endArrow=none;html=1;rounded=0;entryX=0.913;entryY=-0.038;entryDx=0;entryDy=0;entryPerimeter=0;strokeColor=#CC6600;" edge="1" parent="1" target="YEn8krl3zml85tbBqMSh-4">
          <mxGeometry width="50" height="50" relative="1" as="geometry">
            <mxPoint x="680" y="260" as="sourcePoint" />
            <mxPoint x="470" y="300" as="targetPoint" />
            <Array as="points">
              <mxPoint x="600" y="260" />
              <mxPoint x="430" y="260" />
            </Array>
          </mxGeometry>
        </mxCell>
        <mxCell id="YEn8krl3zml85tbBqMSh-18" value="" style="endArrow=none;html=1;rounded=0;strokeColor=#CC6600;" edge="1" parent="1">
          <mxGeometry width="50" height="50" relative="1" as="geometry">
            <mxPoint x="610" y="260" as="sourcePoint" />
            <mxPoint x="610" y="278" as="targetPoint" />
          </mxGeometry>
        </mxCell>
        <mxCell id="YEn8krl3zml85tbBqMSh-19" value="" style="endArrow=classic;html=1;rounded=0;entryX=0.25;entryY=0;entryDx=0;entryDy=0;strokeColor=#00CC00;" edge="1" parent="1" target="YEn8krl3zml85tbBqMSh-4">
          <mxGeometry width="50" height="50" relative="1" as="geometry">
            <mxPoint x="350" y="170" as="sourcePoint" />
            <mxPoint x="450" y="290" as="targetPoint" />
          </mxGeometry>
        </mxCell>
        <mxCell id="YEn8krl3zml85tbBqMSh-20" value="" style="endArrow=classic;html=1;rounded=0;strokeColor=#00CC00;entryX=0.541;entryY=0.01;entryDx=0;entryDy=0;entryPerimeter=0;" edge="1" parent="1" target="jYWn2WIOkaRR7hL1_p1A-34">
          <mxGeometry width="50" height="50" relative="1" as="geometry">
            <mxPoint x="350" y="240" as="sourcePoint" />
            <mxPoint x="580" y="240" as="targetPoint" />
            <Array as="points">
              <mxPoint x="570" y="240" />
            </Array>
          </mxGeometry>
        </mxCell>
        <mxCell id="YEn8krl3zml85tbBqMSh-21" value="&lt;font color=&quot;#0000ff&quot;&gt;Сайт/Пользователь&lt;/font&gt;" style="rounded=1;whiteSpace=wrap;html=1;" vertex="1" parent="1">
          <mxGeometry x="420" y="-80" width="120" height="60" as="geometry" />
        </mxCell>
        <mxCell id="YEn8krl3zml85tbBqMSh-22" value="" style="endArrow=classic;html=1;rounded=0;exitX=0;exitY=0.5;exitDx=0;exitDy=0;entryX=0.417;entryY=0;entryDx=0;entryDy=0;entryPerimeter=0;" edge="1" parent="1" source="YEn8krl3zml85tbBqMSh-21" target="YEn8krl3zml85tbBqMSh-9">
          <mxGeometry width="50" height="50" relative="1" as="geometry">
            <mxPoint x="380" y="80" as="sourcePoint" />
            <mxPoint x="340" y="100" as="targetPoint" />
            <Array as="points">
              <mxPoint x="340" y="-50" />
            </Array>
          </mxGeometry>
        </mxCell>
        <mxCell id="YEn8krl3zml85tbBqMSh-23" value="CDN" style="shape=cube;whiteSpace=wrap;html=1;boundedLbl=1;backgroundOutline=1;darkOpacity=0.05;darkOpacity2=0.1;" vertex="1" parent="1">
          <mxGeometry x="-80" y="480" width="120" height="80" as="geometry" />
        </mxCell>
        <mxCell id="YEn8krl3zml85tbBqMSh-25" value="" style="endArrow=classic;startArrow=classic;html=1;rounded=0;entryX=0;entryY=0.5;entryDx=0;entryDy=0;" edge="1" parent="1" target="YEn8krl3zml85tbBqMSh-9">
          <mxGeometry width="50" height="50" relative="1" as="geometry">
            <mxPoint y="477" as="sourcePoint" />
            <mxPoint x="310" y="240" as="targetPoint" />
            <Array as="points">
              <mxPoint y="140" />
            </Array>
          </mxGeometry>
        </mxCell>
        <mxCell id="YEn8krl3zml85tbBqMSh-26" value="" style="endArrow=none;dashed=1;html=1;dashPattern=1 3;strokeWidth=2;rounded=0;" edge="1" parent="1">
          <mxGeometry width="50" height="50" relative="1" as="geometry">
            <mxPoint x="-120" as="sourcePoint" />
            <mxPoint x="840" as="targetPoint" />
          </mxGeometry>
        </mxCell>
        <mxCell id="YEn8krl3zml85tbBqMSh-27" value="" style="endArrow=none;dashed=1;html=1;dashPattern=1 3;strokeWidth=2;rounded=0;" edge="1" parent="1">
          <mxGeometry width="50" height="50" relative="1" as="geometry">
            <mxPoint x="-120" y="350" as="sourcePoint" />
            <mxPoint x="840" y="350" as="targetPoint" />
          </mxGeometry>
        </mxCell>
        <mxCell id="YEn8krl3zml85tbBqMSh-29" value="" style="endArrow=none;html=1;rounded=0;" edge="1" parent="1">
          <mxGeometry width="50" height="50" relative="1" as="geometry">
            <mxPoint y="140" as="sourcePoint" />
            <mxPoint x="340" y="-50" as="targetPoint" />
            <Array as="points">
              <mxPoint y="-50" />
            </Array>
          </mxGeometry>
        </mxCell>
      </root>
    </mxGraphModel>
  </diagram>
</mxfile>
